<svg version="1.1" id="Layer_1" xmlns="http://www.w3.org/2000/svg" xmlns:xlink="http://www.w3.org/1999/xlink" x="0px" y="0px"
     width="100%" viewBox="0 0 714 164" enable-background="new 0 0 714 164" xml:space="preserve">
<path fill="#FEFEFE" opacity="1.000000" stroke="none"
      d="
M604.000000,165.000000
	C403.099762,165.000000 202.199493,165.000000 1.149625,165.000000
	C1.149625,110.333595 1.149625,55.666862 1.149625,1.000000
	C39.100304,1.000000 77.081497,1.000000 115.530838,1.449676
	C116.629677,7.961155 116.808197,14.125596 118.147652,20.026518
	C118.588837,21.970182 122.000000,24.459454 124.110329,24.514717
	C127.172089,24.594898 129.315536,22.052574 129.033844,18.325026
	C128.597931,12.556917 128.335815,6.775673 128.000000,1.000000
	C130.370560,1.000000 132.741104,1.000000 135.519974,1.355219
	C130.146851,8.675149 129.647720,11.994976 133.658798,18.818041
	C138.809006,15.191774 144.011322,11.684838 149.030914,7.933425
	C151.843552,5.831401 154.353607,3.324482 157.000000,0.999998
	C268.687561,1.000000 380.375122,1.000000 492.576965,1.386374
	C494.451233,7.210571 495.637695,12.701768 497.283386,18.051693
	C497.740265,19.536943 499.559204,20.603203 500.753235,21.861685
	C501.226562,20.268057 502.371490,18.515959 502.040253,17.112200
	C501.229523,13.676518 501.465332,11.103562 505.036652,9.530215
	C506.075623,9.072479 507.074646,8.370723 507.882416,7.569511
	C510.610718,4.863461 513.213074,4.709393 516.023621,7.484222
	C518.484131,9.913403 520.684509,9.438725 522.440918,6.692158
	C520.906311,4.725204 519.453186,2.862602 518.000000,1.000000
	C583.604980,1.000000 649.209961,1.000000 714.907471,1.000000
	C714.907471,55.553486 714.907471,110.107178 714.907471,165.000000
	C680.313171,165.000000 645.625244,165.000000 610.499878,164.645691
	C609.705383,162.745163 609.685730,160.966812 608.848938,159.750732
	C608.431335,159.143845 605.671082,159.136063 605.436890,159.598999
	C604.614258,161.225494 604.427856,163.173813 604.000000,165.000000
M133.865295,51.589397
	C133.969223,51.046246 134.073135,50.503094 134.453125,49.062645
	C134.453125,43.974129 134.453125,38.885616 134.453125,33.762066
	C133.139099,33.634151 132.493469,33.516624 131.847778,33.516331
	C105.704880,33.504375 79.561974,33.496674 53.419102,33.521572
	C52.279022,33.522659 51.139236,33.835243 49.500725,33.937485
	C49.343975,33.996845 49.187222,34.056202 48.325180,34.085781
	C43.232708,36.258106 42.140930,40.548908 42.145298,45.517628
	C42.170444,74.143730 42.152985,102.769859 42.175819,131.395966
	C42.176697,132.497269 42.441898,133.598389 42.565594,134.557434
	C48.787277,134.557434 54.680206,134.557434 60.842751,134.557434
	C60.842751,132.370209 60.842754,130.558243 60.842754,128.746262
	C60.842754,104.780212 60.823452,80.814110 60.883461,56.848206
	C60.887753,55.135757 61.473118,53.424759 62.648193,51.871201
	C86.098595,51.802948 109.549004,51.734699 133.865295,51.589397
M573.819885,51.565773
	C573.900269,51.040295 573.980591,50.514820 574.297119,49.084316
	C574.229492,44.398182 574.161865,39.712044 574.126648,34.308357
	C573.728088,34.139179 573.329529,33.969997 572.030945,33.549137
	C550.479980,33.534874 528.928955,33.493168 507.378082,33.530354
	C503.249542,33.537479 499.121552,33.855137 494.499207,33.941608
	C494.342804,34.000980 494.186432,34.060352 493.273621,34.054317
	C481.212982,37.789864 474.577179,45.748501 473.942017,57.496487
	C473.971222,57.661732 474.000397,57.826973 473.766937,58.899021
	C473.836731,75.596848 473.906525,92.294678 473.858063,109.818298
	C473.958954,111.195908 474.059875,112.573524 474.235596,114.695068
	C476.405518,125.653244 483.631195,131.436142 494.610962,134.319626
	C495.746643,134.397995 496.882324,134.476364 498.912659,134.843140
	C510.515320,134.871765 522.118225,134.958862 533.720581,134.912186
	C544.807739,134.867584 555.894287,134.683792 567.527283,134.548691
	C568.026550,134.387817 568.525818,134.226929 569.731445,134.038879
	C571.440918,131.679489 573.150452,129.320099 575.029480,126.500992
	C575.029480,126.500992 574.946777,126.018021 575.190063,125.106018
	C575.112610,111.399643 575.035156,97.693268 575.042175,83.500885
	C575.042175,83.500885 574.838257,83.051712 574.893616,82.325699
	C573.714111,77.691414 570.900696,75.096611 565.503906,74.960716
	C565.503906,74.960716 565.019897,75.061043 564.096069,74.875885
	C545.725952,74.933617 527.355835,74.991348 508.413696,75.006859
	C508.292114,75.332611 508.170532,75.658356 507.874847,76.905846
	C507.932922,81.942131 507.990997,86.978409 508.016479,92.678261
	C508.368195,92.840584 508.719910,93.002907 509.964233,93.445442
	C525.533386,93.445442 541.102478,93.445442 557.328674,93.445442
	C556.892273,101.638870 556.490173,109.188492 555.504639,116.647690
	C555.317871,116.709625 555.131104,116.771568 554.049316,116.554436
	C536.049438,116.647469 518.049500,116.740509 499.489136,116.648453
	C499.295258,116.681931 499.101349,116.715401 498.381256,116.321251
	C496.266602,114.552696 494.151947,112.784134 492.111664,110.267860
	C492.050903,109.521088 491.990143,108.774307 492.122955,107.104233
	C492.058441,91.395897 491.993927,75.687553 492.036926,59.500340
	C492.036926,59.500340 491.947845,59.017693 492.212555,58.333282
	C492.664429,54.265438 495.199463,52.356594 499.942108,51.884872
	C524.294434,51.811745 548.646729,51.738613 573.819885,51.565773
M193.343445,41.822342
	C198.541824,42.076828 203.740189,42.331314 209.623322,42.823467
	C210.260361,42.116138 211.434555,41.417404 211.446030,40.700062
	C211.513306,36.494915 211.308914,32.285423 211.339508,27.500927
	C211.265213,27.317385 211.190903,27.133844 210.658737,26.202316
	C204.927856,26.202316 199.196991,26.202316 193.364883,26.202316
	C193.364883,31.317354 193.364883,36.054920 193.343445,41.822342
M125.612305,93.204933
	C125.740585,92.803612 125.868866,92.402290 126.191544,91.084595
	C126.126816,86.056137 126.062088,81.027672 126.044464,75.409386
	C125.701721,75.290192 125.358986,75.170990 124.090836,74.878777
	C106.053719,74.943527 88.016602,75.008278 69.502274,74.969017
	C69.502274,74.969017 69.037827,75.120117 68.199028,75.365677
	C68.453979,81.286568 68.708923,87.207451 69.501434,93.333054
	C69.684532,93.276154 69.867638,93.219254 70.946793,93.439575
	C88.943604,93.346931 106.940414,93.254288 125.612305,93.204933
M147.038437,110.788239
	C148.820175,128.265213 162.455948,137.805511 180.845093,134.310638
	C180.845093,128.565811 180.845093,122.793213 180.845093,116.471809
	C178.574539,116.471809 176.451950,116.539116 174.334900,116.459335
	C167.681839,116.208626 165.416824,113.914940 165.343216,107.297379
	C165.285889,102.143539 165.348785,96.988472 165.328629,91.834076
	C165.245453,70.561241 165.150970,49.288452 165.200348,27.496164
	C165.125931,27.333019 165.051529,27.169872 164.599625,26.227186
	C158.787811,26.499960 152.976013,26.772734 146.960785,27.495996
	C146.960785,27.495996 147.061249,27.979961 146.876175,28.903826
	C146.940948,55.609409 147.005722,82.314995 146.970459,109.497986
	C146.970459,109.497986 147.138443,109.955933 147.038437,110.788239
M355.412292,34.739582
	C355.412292,34.739582 354.981293,34.953056 354.066376,34.757229
	C350.906219,34.742779 347.744232,34.651829 344.586243,34.727386
	C332.245453,35.022652 325.702057,46.476517 331.677094,57.294125
	C333.844452,61.218109 336.051056,65.120560 338.257111,69.023041
	C349.288574,88.537491 360.332611,108.044838 371.356750,127.563438
	C374.550507,133.218063 379.337158,135.589142 385.817108,135.268402
	C393.809570,134.872787 396.936340,128.975494 400.869354,123.485596
	C410.502258,128.745285 418.221436,126.894173 423.601349,117.479683
	C436.523743,94.866310 449.124542,72.068848 462.096222,49.484169
	C465.164429,44.142155 465.824310,38.992290 464.462036,33.194092
	C465.477753,33.702263 466.513123,34.174942 467.506195,34.724056
	C477.856903,40.447491 489.245880,35.238110 491.618347,23.685551
	C492.826782,17.800993 486.778320,7.842659 480.439575,5.280501
	C472.110260,1.913738 461.585510,7.045237 460.044006,15.937282
	C459.292786,20.270731 460.520691,24.947277 460.109650,29.429802
	C458.064240,28.323669 456.018829,27.217539 453.059784,25.895590
	C431.509247,25.836723 409.958679,25.738913 388.408142,25.740311
	C380.957642,25.740795 373.507172,25.987888 365.336670,26.073601
	C362.177734,28.903574 359.018799,31.733545 355.412292,34.739582
M229.178864,62.823101
	C238.806076,73.301308 248.433304,83.779518 258.152252,94.357582
	C245.722336,107.942390 233.673370,121.110855 221.031174,134.927673
	C228.223099,134.927673 234.372711,134.674316 240.489517,135.013168
	C244.860580,135.255310 247.810944,133.874908 250.688004,130.486572
	C257.093018,122.943344 264.020874,115.844025 270.952576,108.328590
	C278.478302,116.489166 285.538055,124.214531 292.701782,131.842255
	C293.871216,133.087463 295.467590,134.720932 296.921204,134.777649
	C304.479523,135.072586 312.055450,134.915039 320.498718,134.915039
	C307.754639,121.072357 295.667267,107.942970 283.519470,94.747955
	C293.664001,83.513008 303.348328,72.787735 313.665192,61.735542
	C314.424744,60.801708 315.184326,59.867874 316.527985,58.215923
	C308.133301,58.215923 300.693909,58.143124 293.259125,58.294724
	C292.148682,58.317364 291.059753,59.393696 289.378082,60.304970
	C283.232635,67.021019 277.087158,73.737068 270.657501,80.763710
	C264.929291,74.496147 259.629211,68.697052 254.085968,62.265118
	C253.408569,61.763126 252.731171,61.261139 251.767273,60.510895
	C251.571289,60.345383 251.415817,60.147968 251.149231,59.087875
	C242.825119,58.681561 234.500992,58.275246 226.176865,57.868931
	C225.866302,58.545437 225.555725,59.221947 225.245148,59.898453
	C226.456757,60.677971 227.668350,61.457489 229.178864,62.823101
M675.210815,114.215332
	C675.269653,102.961105 675.814636,91.677635 675.140137,80.467537
	C674.882263,76.180428 671.834900,72.061150 669.836853,67.210747
	C665.769531,62.894810 660.974121,59.903038 654.213501,58.802467
	C640.142944,58.885750 626.072388,58.969036 611.238770,59.051888
	C597.928406,62.591328 590.964111,71.249161 590.970825,84.498077
	C590.970825,84.498077 591.070557,84.976761 590.877380,85.899529
	C590.941772,93.606613 591.006165,101.313690 590.970520,109.497993
	C590.970520,109.497993 591.138489,109.955742 591.038940,110.794327
	C591.999695,124.826851 601.368103,134.315094 615.435425,134.779755
	C627.071777,135.164108 638.737671,135.171432 650.375916,134.837631
	C663.291504,134.467163 672.551392,126.701462 675.210815,114.215332
M211.487061,88.500237
	C211.487061,78.565964 211.487061,68.631683 211.487061,58.731461
	C205.036789,58.731461 199.167007,58.731461 193.478027,58.731461
	C193.478027,84.340019 193.478027,109.538940 193.478027,134.628876
	C199.620880,134.628876 205.372116,134.628876 211.486893,134.628876
	C211.486893,119.400894 211.486893,104.450569 211.487061,88.500237
z"/>
  <path fill="#F0F0F0" opacity="1.000000" stroke="none"
        d="
M127.539368,1.000000
	C128.335815,6.775673 128.597931,12.556917 129.033844,18.325026
	C129.315536,22.052574 127.172089,24.594898 124.110329,24.514717
	C122.000000,24.459454 118.588837,21.970182 118.147652,20.026518
	C116.808197,14.125596 116.629677,7.961155 115.999496,1.449676
	C119.692909,1.000000 123.385818,1.000000 127.539368,1.000000
z"/>
  <path fill="#F0F0F0" opacity="1.000000" stroke="none"
        d="
M156.531464,0.999998
	C154.353607,3.324482 151.843552,5.831401 149.030914,7.933425
	C144.011322,11.684838 138.809006,15.191774 133.658798,18.818041
	C129.647720,11.994976 130.146851,8.675149 135.964142,1.355219
	C142.687637,1.000000 149.375290,1.000000 156.531464,0.999998
z"/>
  <path fill="#F0F0F0" opacity="1.000000" stroke="none"
        d="
M517.541931,1.000000
	C519.453186,2.862602 520.906311,4.725204 522.440918,6.692158
	C520.684509,9.438725 518.484131,9.913403 516.023621,7.484222
	C513.213074,4.709393 510.610718,4.863461 507.882416,7.569511
	C507.074646,8.370723 506.075623,9.072479 505.036652,9.530215
	C501.465332,11.103562 501.229523,13.676518 502.040253,17.112200
	C502.371490,18.515959 501.226562,20.268057 500.753235,21.861685
	C499.559204,20.603203 497.740265,19.536943 497.283386,18.051693
	C495.637695,12.701768 494.451233,7.210571 493.045654,1.386374
	C494.388885,1.000000 495.777802,1.000000 497.621063,1.359015
	C498.774200,3.645083 499.472992,5.572135 500.683258,8.909819
	C503.341461,5.581204 505.170746,3.290603 507.000000,1.000001
	C510.361298,1.000000 513.722595,1.000000 517.541931,1.000000
z"/>
  <path fill="#FEFEFE" opacity="1.000000" stroke="none"
        d="
M506.550018,1.000001
	C505.170746,3.290603 503.341461,5.581204 500.683258,8.909819
	C499.472992,5.572135 498.774200,3.645083 498.037720,1.359015
	C500.700012,1.000000 503.400024,1.000000 506.550018,1.000001
z"/>
  <path fill="#F0F0F0" opacity="1.000000" stroke="none"
        d="
M604.428467,165.000000
	C604.427856,163.173813 604.614258,161.225494 605.436890,159.598999
	C605.671082,159.136063 608.431335,159.143845 608.848938,159.750732
	C609.685730,160.966812 609.705383,162.745163 610.031189,164.645691
	C608.285645,165.000000 606.571289,165.000000 604.428467,165.000000
z"/>
  <path fill="#353535" opacity="1.000000" stroke="none"
        d="
M574.859924,126.960709
	C573.150452,129.320099 571.440918,131.679489 569.236450,133.830872
	C568.154663,133.935654 567.567932,134.248413 566.981140,134.561172
	C555.894287,134.683792 544.807739,134.867584 533.720581,134.912186
	C522.118225,134.958862 510.515320,134.871765 498.369934,134.394928
	C496.551239,133.965286 495.275269,133.983841 493.999268,134.002396
	C483.631195,131.436142 476.405518,125.653244 474.460175,114.089844
	C474.448608,111.987244 474.212463,110.489876 473.976318,108.992500
	C473.906525,92.294678 473.836731,75.596848 474.072357,58.374092
	C474.452606,57.749744 474.611023,57.593178 474.588562,57.560318
	C474.455811,57.366192 474.281006,57.200809 474.120361,57.025749
	C474.577179,45.748501 481.212982,37.789864 493.744690,34.249851
	C494.474945,34.306763 494.734131,34.168144 494.993286,34.029530
	C499.121552,33.855137 503.249542,33.537479 507.378082,33.530354
	C528.928955,33.493168 550.479980,33.534874 572.590454,33.951813
	C573.464722,34.578293 573.779480,34.802097 574.094238,35.025906
	C574.161865,39.712044 574.229492,44.398182 573.907959,49.528854
	C573.338135,49.976597 573.157471,49.979801 572.509521,49.987907
	C549.384399,49.994724 526.726196,49.958935 504.068817,50.075035
	C502.380524,50.083687 500.697784,51.181019 499.012482,51.772255
	C495.199463,52.356594 492.664429,54.265438 491.906311,58.754074
	C491.532501,59.281559 491.385406,59.453911 491.410400,59.484177
	C491.561554,59.667229 491.752075,59.817795 491.929413,59.979218
	C491.993927,75.687553 492.058441,91.395897 491.771759,107.743011
	C491.626160,109.259705 491.831757,110.137634 492.037354,111.015564
	C494.151947,112.784134 496.266602,114.552696 498.750916,116.730965
	C499.430267,117.038300 499.739960,116.935913 500.049622,116.833534
	C518.049500,116.740509 536.049438,116.647469 554.611633,116.883652
	C555.478699,117.054619 555.783386,116.896378 556.088074,116.738129
	C556.490173,109.188492 556.892273,101.638870 557.328674,93.445442
	C541.102478,93.445442 525.533386,93.445442 509.422302,93.049278
	C508.603241,92.440300 508.326141,92.227493 508.049042,92.014694
	C507.990997,86.978409 507.932922,81.942131 508.201813,76.390945
	C508.840057,75.688240 508.992371,75.412590 508.985718,75.049072
	C527.355835,74.991348 545.725952,74.933617 564.614990,75.144241
	C565.407471,75.329712 565.680908,75.246826 565.954407,75.163940
	C570.900696,75.096611 573.714111,77.691414 574.709045,82.786346
	C574.668823,83.493629 574.813232,83.740265 574.957642,83.986893
	C575.035156,97.693268 575.112610,111.399643 574.899902,125.632332
	C574.536987,126.255104 574.383057,126.406883 574.404907,126.438904
	C574.533936,126.628265 574.703796,126.789810 574.859924,126.960709
z"/>
  <path fill="#353535" opacity="1.000000" stroke="none"
        d="
M591.139282,84.039032
	C590.964111,71.249161 597.928406,62.591328 611.950684,59.297218
	C626.186584,59.648918 639.710571,59.765598 653.234863,59.826801
	C653.822388,59.829456 654.412292,59.322380 655.001099,59.052746
	C660.974121,59.903038 665.769531,62.894810 669.918945,67.929474
	C671.034119,71.592041 672.783997,74.491257 672.970520,77.487801
	C673.618286,87.892967 673.685059,98.333321 674.067322,108.756813
	C674.143860,110.844994 674.635864,112.917923 674.936340,114.997879
	C672.551392,126.701462 663.291504,134.467163 650.375916,134.837631
	C638.737671,135.171432 627.071777,135.164108 615.435425,134.779755
	C601.368103,134.315094 591.999695,124.826851 591.247314,110.284744
	C591.327271,109.523697 591.198914,109.272240 591.070557,109.020782
	C591.006165,101.313690 590.941772,93.606613 591.144409,85.372330
	C591.480042,84.745392 591.628235,84.590248 591.603821,84.555145
	C591.472717,84.366638 591.298584,84.207985 591.139282,84.039032
M615.304871,76.988640
	C611.057068,77.393196 609.864258,80.539139 608.666748,84.170425
	C608.592896,84.276588 608.436218,84.451042 608.458435,84.477936
	C608.615234,84.668114 608.808716,84.828003 609.189209,85.916855
	C609.123047,93.612106 609.056885,101.307350 608.640686,109.188080
	C608.781128,109.464165 608.921570,109.740242 609.473816,110.582031
	C611.345154,112.545021 613.216431,114.508018 615.319275,117.119919
	C616.232056,117.026543 617.144836,116.933167 618.953125,116.563690
	C628.703186,116.547867 638.453735,116.462616 648.203064,116.541298
	C654.421875,116.591484 655.997253,115.446312 658.200989,108.710014
	C658.415527,100.879333 658.651184,93.048996 658.782227,85.216927
	C658.788818,84.824486 657.889465,84.416870 657.149475,83.285637
	C656.833191,78.837265 654.012268,77.141281 649.756836,76.015625
	C649.225098,75.692459 648.695312,75.091125 648.161316,75.087372
	C638.284973,75.017982 628.407532,74.976967 618.532104,75.083382
	C617.686279,75.092499 616.852173,76.181099 615.304871,76.988640
z"/>
  <path fill="#343434" opacity="1.000000" stroke="none"
        d="
M254.329132,62.897957
	C259.629211,68.697052 264.929291,74.496147 270.657501,80.763710
	C277.087158,73.737068 283.232635,67.021019 290.140442,60.128738
	C296.622375,59.944389 302.348877,59.777023 308.057190,60.026432
	C309.742096,60.100048 311.375610,61.351017 313.032654,62.062450
	C303.348328,72.787735 293.664001,83.513008 283.519470,94.747955
	C295.667267,107.942970 307.754639,121.072357 320.498718,134.915039
	C312.055450,134.915039 304.479523,135.072586 296.921204,134.777649
	C295.467590,134.720932 293.871216,133.087463 292.701782,131.842255
	C285.538055,124.214531 278.478302,116.489166 270.952576,108.328590
	C264.020874,115.844025 257.093018,122.943344 250.688004,130.486572
	C247.810944,133.874908 244.860580,135.255310 240.489517,135.013168
	C234.372711,134.674316 228.223099,134.927673 221.031174,134.927673
	C233.673370,121.110855 245.722336,107.942390 258.152252,94.357582
	C248.433304,83.779518 238.806076,73.301308 229.106812,62.106476
	C230.484009,60.902733 231.922867,60.035053 233.384338,59.995121
	C239.352753,59.832031 245.328064,59.921936 251.300842,59.918655
	C251.415817,60.147968 251.571289,60.345383 251.954468,60.994350
	C252.870819,61.951191 253.599976,62.424572 254.329132,62.897957
z"/>
  <path fill="#373737" opacity="1.000000" stroke="none"
        d="
M61.788307,51.713089
	C61.473118,53.424759 60.887753,55.135757 60.883461,56.848206
	C60.823452,80.814110 60.842754,104.780212 60.842754,128.746262
	C60.842754,130.558243 60.842751,132.370209 60.842751,134.557434
	C54.680206,134.557434 48.787277,134.557434 42.565594,134.557434
	C42.441898,133.598389 42.176697,132.497269 42.175819,131.395966
	C42.152985,102.769859 42.170444,74.143730 42.145298,45.517628
	C42.140930,40.548908 43.232708,36.258106 48.771374,34.266232
	C49.478149,34.298695 49.738731,34.150711 49.999313,34.002724
	C51.139236,33.835243 52.279022,33.522659 53.419102,33.521572
	C79.561974,33.496674 105.704880,33.504375 131.847778,33.516331
	C132.493469,33.516624 133.139099,33.634151 134.453125,33.762066
	C134.453125,38.885616 134.453125,43.974129 134.014267,49.516068
	C133.374863,49.972656 133.174332,49.975822 132.506805,49.984398
	C110.542900,49.992039 89.045731,49.950706 67.549469,50.071091
	C65.626076,50.081863 63.708557,51.140896 61.788307,51.713089
z"/>
  <path fill="#75EC35" opacity="1.000000" stroke="none"
        d="
M400.268127,123.177963
	C396.936340,128.975494 393.809570,134.872787 385.817108,135.268402
	C379.337158,135.589142 374.550507,133.218063 371.356750,127.563438
	C360.332611,108.044838 349.288574,88.537491 338.257111,69.023041
	C336.051056,65.120560 333.844452,61.218109 331.677094,57.294125
	C325.702057,46.476517 332.245453,35.022652 344.586243,34.727386
	C347.744232,34.651829 350.906219,34.742779 354.540710,35.118118
	C355.033630,35.653694 355.052246,35.828381 355.043823,36.448345
	C354.563995,41.667503 355.733765,45.822845 358.254059,50.079815
	C366.358734,63.769428 373.874481,77.806091 381.811096,91.597427
	C387.750336,101.917923 393.988892,112.066162 400.144714,122.511429
	C400.195312,122.731758 400.268127,123.177963 400.268127,123.177963
z"/>
  <path fill="#029E5B" opacity="1.000000" stroke="none"
        d="
M400.568726,123.331779
	C400.268127,123.177963 400.195312,122.731758 400.436035,122.298279
	C413.044861,100.045326 425.579315,78.317619 437.695068,56.358929
	C442.222626,48.153164 438.708252,39.700317 429.828125,35.667648
	C419.570740,35.224411 409.622437,35.046257 399.673370,34.941620
	C385.069183,34.788013 370.464417,34.686970 355.859894,34.563526
	C359.018799,31.733545 362.177734,28.903574 366.002502,26.371353
	C367.317261,26.775620 367.966034,26.974764 368.615021,26.975317
	C395.826324,26.998547 423.037659,27.015882 450.248871,26.973480
	C451.490814,26.971546 452.731934,26.411503 453.973419,26.111404
	C456.018829,27.217539 458.064240,28.323669 460.455841,29.654320
	C460.802032,29.878839 461.096954,30.170609 461.096954,30.170609
	C461.096954,30.170609 461.507782,30.114552 461.626953,30.422878
	C462.421265,31.574821 463.096375,32.418442 463.756500,33.282364
	C463.741516,33.302670 463.715210,33.345753 463.715210,33.345753
	C465.824310,38.992290 465.164429,44.142155 462.096222,49.484169
	C449.124542,72.068848 436.523743,94.866310 423.601349,117.479683
	C418.221436,126.894173 410.502258,128.745285 400.568726,123.331779
z"/>
  <path fill="#353535" opacity="1.000000" stroke="none"
        d="
M147.164200,27.045511
	C152.976013,26.772734 158.787811,26.499960 164.628387,26.724548
	C164.791672,27.486490 164.926163,27.751068 165.060654,28.015648
	C165.150970,49.288452 165.245453,70.561241 165.328629,91.834076
	C165.348785,96.988472 165.285889,102.143539 165.343216,107.297379
	C165.416824,113.914940 167.681839,116.208626 174.334900,116.459335
	C176.451950,116.539116 178.574539,116.471809 180.845093,116.471809
	C180.845093,122.793213 180.845093,128.565811 180.845093,134.310638
	C162.455948,137.805511 148.820175,128.265213 147.247101,110.281723
	C147.327332,109.523674 147.198914,109.272125 147.070496,109.020576
	C147.005722,82.314995 146.940948,55.609409 147.145721,28.385433
	C147.490234,27.769375 147.648376,27.615677 147.626526,27.583242
	C147.495361,27.388536 147.322861,27.221693 147.164200,27.045511
z"/>
  <path fill="#333333" opacity="1.000000" stroke="none"
        d="
M69.979485,75.073029
	C88.016602,75.008278 106.053719,74.943527 124.624283,75.203064
	C125.360138,75.822479 125.640007,75.979767 125.997353,75.999214
	C126.062088,81.027672 126.126816,86.056137 125.835449,91.644333
	C125.298645,92.523270 125.117935,92.842461 124.937225,93.161652
	C106.940414,93.254288 88.943604,93.346931 70.399353,93.115860
	C69.555901,92.904213 69.259888,93.016273 68.963867,93.128342
	C68.708923,87.207451 68.453979,81.286568 68.709419,75.400909
	C69.473038,75.315109 69.726257,75.194069 69.979485,75.073029
z"/>
  <path fill="#F0F0F0" opacity="1.000000" stroke="none"
        d="
M461.507782,30.114550
	C461.507782,30.114552 461.096954,30.170609 461.096954,30.170609
	C461.096954,30.170609 460.802032,29.878839 460.827362,29.673677
	C460.520691,24.947277 459.292786,20.270731 460.044006,15.937282
	C461.585510,7.045237 472.110260,1.913738 480.439575,5.280501
	C486.778320,7.842659 492.826782,17.800993 491.618347,23.685551
	C489.245880,35.238110 477.856903,40.447491 467.506195,34.724056
	C466.513123,34.174942 465.477753,33.702263 464.088623,33.269920
	C463.715210,33.345753 463.741516,33.302670 463.818207,32.875679
	C463.099182,31.670643 462.303497,30.892595 461.507782,30.114550
M480.841278,11.487030
	C478.907623,10.659272 477.028961,9.317536 475.029633,9.103562
	C469.777222,8.541445 464.355225,13.336565 464.013489,18.394150
	C463.634857,23.997047 469.707397,31.853014 474.869507,31.893475
	C477.336334,31.912807 480.373169,31.519793 482.182922,30.088482
	C488.724182,24.915010 488.321899,19.469719 480.841278,11.487030
z"/>
  <path fill="#2E2E2E" opacity="1.000000" stroke="none"
        d="
M211.486969,89.000244
	C211.486893,104.450569 211.486893,119.400894 211.486893,134.628876
	C205.372116,134.628876 199.620880,134.628876 193.478027,134.628876
	C193.478027,109.538940 193.478027,84.340019 193.478027,58.731461
	C199.167007,58.731461 205.036789,58.731461 211.487061,58.731461
	C211.487061,68.631683 211.487061,78.565964 211.486969,89.000244
M204.398926,132.998398
	C209.226837,133.882538 210.130219,131.512360 210.083008,127.147926
	C209.876053,108.021347 209.993896,88.891258 209.993896,69.762444
	C209.993912,59.940876 209.984848,60.210941 200.328125,59.887661
	C195.671112,59.731754 194.871582,61.457668 194.913544,65.628769
	C195.111038,85.254608 194.954788,104.883698 195.020981,124.511299
	C195.053955,134.287506 193.715179,132.852844 204.398926,132.998398
z"/>
  <path fill="#3E3E3E" opacity="1.000000" stroke="none"
        d="
M211.196152,28.077400
	C211.308914,32.285423 211.513306,36.494915 211.446030,40.700062
	C211.434555,41.417404 210.260361,42.116138 209.141968,42.350388
	C203.562027,41.515705 198.463455,41.154095 193.364883,40.792488
	C193.364883,36.054920 193.364883,31.317354 193.364883,26.202316
	C199.196991,26.202316 204.927856,26.202316 210.705627,26.700268
	C210.900406,27.491280 211.048279,27.784340 211.196152,28.077400
z"/>
  <path fill="#2A2A2A" opacity="1.000000" stroke="none"
        d="
M499.477295,51.828560
	C500.697784,51.181019 502.380524,50.083687 504.068817,50.075035
	C526.726196,49.958935 549.384399,49.994724 572.517090,50.408600
	C572.994202,51.104763 572.996643,51.385128 572.999023,51.665489
	C548.646729,51.738613 524.294434,51.811745 499.477295,51.828560
z"/>
  <path fill="#2A2A2A" opacity="1.000000" stroke="none"
        d="
M62.218250,51.792145
	C63.708557,51.140896 65.626076,50.081863 67.549469,50.071091
	C89.045731,49.950706 110.542900,49.992039 132.515472,50.406357
	C132.993866,51.104084 132.996643,51.385265 132.999405,51.666451
	C109.549004,51.734699 86.098595,51.802948 62.218250,51.792145
z"/>
  <path fill="#434343" opacity="1.000000" stroke="none"
        d="
M675.073608,114.606606
	C674.635864,112.917923 674.143860,110.844994 674.067322,108.756813
	C673.685059,98.333321 673.618286,87.892967 672.970520,77.487801
	C672.783997,74.491257 671.034119,71.592041 670.029907,68.256805
	C671.834900,72.061150 674.882263,76.180428 675.140137,80.467537
	C675.814636,91.677635 675.269653,102.961105 675.073608,114.606606
z"/>
  <path fill="#008F30" opacity="1.000000" stroke="none"
        d="
M453.516602,26.003496
	C452.731934,26.411503 451.490814,26.971546 450.248871,26.973480
	C423.037659,27.015882 395.826324,26.998547 368.615021,26.975317
	C367.966034,26.974764 367.317261,26.775620 366.362518,26.395720
	C373.507172,25.987888 380.957642,25.740795 388.408142,25.740311
	C409.958679,25.738913 431.509247,25.836723 453.516602,26.003496
z"/>
  <path fill="#4A4A4A" opacity="1.000000" stroke="none"
        d="
M654.607300,58.927605
	C654.412292,59.322380 653.822388,59.829456 653.234863,59.826801
	C639.710571,59.765598 626.186584,59.648918 612.332153,59.297436
	C626.072388,58.969036 640.142944,58.885750 654.607300,58.927605
z"/>
  <path fill="#47DF00" opacity="1.000000" stroke="none"
        d="
M355.636108,34.651558
	C370.464417,34.686970 385.069183,34.788013 399.673370,34.941620
	C409.622437,35.046257 419.570740,35.224411 429.346313,35.678558
	C404.472412,35.992638 379.771637,35.997852 355.070831,36.003071
	C355.052246,35.828381 355.033630,35.653694 354.998169,35.216034
	C354.981293,34.953056 355.412292,34.739582 355.636108,34.651558
z"/>
  <path fill="#4A4A4A" opacity="1.000000" stroke="none"
        d="
M313.348938,61.898994
	C311.375610,61.351017 309.742096,60.100048 308.057190,60.026432
	C302.348877,59.777023 296.622375,59.944389 290.431824,59.967545
	C291.059753,59.393696 292.148682,58.317364 293.259125,58.294724
	C300.693909,58.143124 308.133301,58.215923 316.527985,58.215923
	C315.184326,59.867874 314.424744,60.801708 313.348938,61.898994
z"/>
  <path fill="#4A4A4A" opacity="1.000000" stroke="none"
        d="
M251.225037,59.503265
	C245.328064,59.921936 239.352753,59.832031 233.384338,59.995121
	C231.922867,60.035053 230.484009,60.902733 228.957352,61.813431
	C227.668350,61.457489 226.456757,60.677971 225.245148,59.898453
	C225.555725,59.221947 225.866302,58.545437 226.176865,57.868931
	C234.500992,58.275246 242.825119,58.681561 251.225037,59.503265
z"/>
  <path fill="#1E1E1E" opacity="1.000000" stroke="none"
        d="
M193.354156,41.307411
	C198.463455,41.154095 203.562027,41.515705 208.799591,42.231560
	C203.740189,42.331314 198.541824,42.076828 193.354156,41.307411
z"/>
  <path fill="#3C3C3C" opacity="1.000000" stroke="none"
        d="
M494.305115,134.161011
	C495.275269,133.983841 496.551239,133.965286 497.922607,134.250732
	C496.882324,134.476364 495.746643,134.397995 494.305115,134.161011
z"/>
  <path fill="#1E1E1E" opacity="1.000000" stroke="none"
        d="
M473.917175,109.405396
	C474.212463,110.489876 474.448608,111.987244 474.422791,113.717880
	C474.059875,112.573524 473.958954,111.195908 473.917175,109.405396
z"/>
  <path fill="#4A4A4A" opacity="1.000000" stroke="none"
        d="
M254.207550,62.581535
	C253.599976,62.424572 252.870819,61.951191 252.097717,61.118477
	C252.731171,61.261139 253.408569,61.763126 254.207550,62.581535
z"/>
  <path fill="#3C3C3C" opacity="1.000000" stroke="none"
        d="
M567.254211,134.554932
	C567.567932,134.248413 568.154663,133.935654 568.883301,133.844452
	C568.525818,134.226929 568.026550,134.387817 567.254211,134.554932
z"/>
  <path fill="#101010" opacity="1.000000" stroke="none"
        d="
M492.074524,110.641708
	C491.831757,110.137634 491.626160,109.259705 491.674988,108.204659
	C491.990143,108.774307 492.050903,109.521088 492.074524,110.641708
z"/>
  <path fill="#101010" opacity="1.000000" stroke="none"
        d="
M147.020477,109.259277
	C147.198914,109.272125 147.327332,109.523674 147.297089,109.865570
	C147.138443,109.955933 146.970459,109.497986 147.020477,109.259277
z"/>
  <path fill="#101010" opacity="1.000000" stroke="none"
        d="
M565.729126,75.062332
	C565.680908,75.246826 565.407471,75.329712 565.076904,75.236816
	C565.019897,75.061043 565.503906,74.960716 565.729126,75.062332
z"/>
  <path fill="#1E1E1E" opacity="1.000000" stroke="none"
        d="
M69.232651,93.230698
	C69.259888,93.016273 69.555901,92.904213 69.951324,92.977249
	C69.867638,93.219254 69.684532,93.276154 69.232651,93.230698
z"/>
  <path fill="#101010" opacity="1.000000" stroke="none"
        d="
M125.274765,93.183289
	C125.117935,92.842461 125.298645,92.523270 125.738251,92.102524
	C125.868866,92.402290 125.740585,92.803612 125.274765,93.183289
z"/>
  <path fill="#101010" opacity="1.000000" stroke="none"
        d="
M508.032776,92.346474
	C508.326141,92.227493 508.603241,92.440300 508.975983,92.909172
	C508.719910,93.002907 508.368195,92.840584 508.032776,92.346474
z"/>
  <path fill="#1E1E1E" opacity="1.000000" stroke="none"
        d="
M555.796387,116.692917
	C555.783386,116.896378 555.478699,117.054619 555.059082,117.023193
	C555.131104,116.771568 555.317871,116.709625 555.796387,116.692917
z"/>
  <path fill="#101010" opacity="1.000000" stroke="none"
        d="
M574.944702,126.730850
	C574.703796,126.789810 574.533936,126.628265 574.404907,126.438904
	C574.383057,126.406883 574.536987,126.255104 574.778198,126.088333
	C574.946777,126.018021 575.029480,126.500992 574.944702,126.730850
z"/>
  <path fill="#101010" opacity="1.000000" stroke="none"
        d="
M591.020508,109.259384
	C591.198914,109.272240 591.327271,109.523697 591.297119,109.865448
	C591.138489,109.955742 590.970520,109.497993 591.020508,109.259384
z"/>
  <path fill="#1E1E1E" opacity="1.000000" stroke="none"
        d="
M499.769379,116.740990
	C499.739960,116.935913 499.430267,117.038300 499.014038,116.944771
	C499.101349,116.715401 499.295258,116.681931 499.769379,116.740990
z"/>
  <path fill="#101010" opacity="1.000000" stroke="none"
        d="
M591.055054,84.268555
	C591.298584,84.207985 591.472717,84.366638 591.603821,84.555145
	C591.628235,84.590248 591.480042,84.745392 591.241028,84.910950
	C591.070557,84.976761 590.970825,84.498077 591.055054,84.268555
z"/>
  <path fill="#101010" opacity="1.000000" stroke="none"
        d="
M574.999878,83.743896
	C574.813232,83.740265 574.668823,83.493629 574.681396,83.149353
	C574.838257,83.051712 575.042175,83.500885 574.999878,83.743896
z"/>
  <path fill="#1E1E1E" opacity="1.000000" stroke="none"
        d="
M574.110474,34.667130
	C573.779480,34.802097 573.464722,34.578293 573.040466,34.077652
	C573.329529,33.969997 573.728088,34.139179 574.110474,34.667130
z"/>
  <path fill="#101010" opacity="1.000000" stroke="none"
        d="
M508.699707,75.027969
	C508.992371,75.412590 508.840057,75.688240 508.288879,75.930069
	C508.170532,75.658356 508.292114,75.332611 508.699707,75.027969
z"/>
  <path fill="#101010" opacity="1.000000" stroke="none"
        d="
M126.020905,75.704300
	C125.640007,75.979767 125.360138,75.822479 125.086990,75.289574
	C125.358986,75.170990 125.701721,75.290192 126.020905,75.704300
z"/>
  <path fill="#101010" opacity="1.000000" stroke="none"
        d="
M69.740875,75.021027
	C69.726257,75.194069 69.473038,75.315109 69.128815,75.278137
	C69.037827,75.120117 69.502274,74.969017 69.740875,75.021027
z"/>
  <path fill="#101010" opacity="1.000000" stroke="none"
        d="
M147.062500,27.270756
	C147.322861,27.221693 147.495361,27.388536 147.626526,27.583242
	C147.648376,27.615677 147.490234,27.769375 147.238266,27.923500
	C147.061249,27.979961 146.960785,27.495996 147.062500,27.270756
z"/>
  <path fill="#1E1E1E" opacity="1.000000" stroke="none"
        d="
M165.130493,27.755905
	C164.926163,27.751068 164.791672,27.486490 164.817139,27.114319
	C165.051529,27.169872 165.125931,27.333019 165.130493,27.755905
z"/>
  <path fill="#1E1E1E" opacity="1.000000" stroke="none"
        d="
M211.267822,27.789164
	C211.048279,27.784340 210.900406,27.491280 210.934570,27.074263
	C211.190903,27.133844 211.265213,27.317385 211.267822,27.789164
z"/>
  <path fill="#101010" opacity="1.000000" stroke="none"
        d="
M491.983154,59.739780
	C491.752075,59.817795 491.561554,59.667229 491.410400,59.484177
	C491.385406,59.453911 491.532501,59.281559 491.773956,59.096283
	C491.947845,59.017693 492.036926,59.500340 491.983154,59.739780
z"/>
  <path fill="#1E1E1E" opacity="1.000000" stroke="none"
        d="
M474.031189,57.261120
	C474.281006,57.200809 474.455811,57.366192 474.588562,57.560318
	C474.611023,57.593178 474.452606,57.749744 474.203674,57.920685
	C474.000397,57.826973 473.971222,57.661732 474.031189,57.261120
z"/>
  <path fill="#1E1E1E" opacity="1.000000" stroke="none"
        d="
M573.409424,51.615631
	C572.996643,51.385128 572.994202,51.104763 572.984253,50.403702
	C573.157471,49.979801 573.338135,49.976597 573.789917,49.981369
	C573.980591,50.514820 573.900269,51.040295 573.409424,51.615631
z"/>
  <path fill="#1E1E1E" opacity="1.000000" stroke="none"
        d="
M133.432343,51.627922
	C132.996643,51.385265 132.993866,51.104084 132.982452,50.400944
	C133.174332,49.975822 133.374863,49.972656 133.876221,49.964714
	C134.073135,50.503094 133.969223,51.046246 133.432343,51.627922
z"/>
  <path fill="#1E1E1E" opacity="1.000000" stroke="none"
        d="
M49.750019,33.970104
	C49.738731,34.150711 49.478149,34.298695 49.124020,34.281120
	C49.187222,34.056202 49.343975,33.996845 49.750019,33.970104
z"/>
  <path fill="#1E1E1E" opacity="1.000000" stroke="none"
        d="
M494.746246,33.985565
	C494.734131,34.168144 494.474945,34.306763 494.122925,34.282555
	C494.186432,34.060352 494.342804,34.000980 494.746246,33.985565
z"/>
  <path fill="#FCFCFC" opacity="1.000000" stroke="none"
        d="
M608.990662,109.002602
	C609.056885,101.307350 609.123047,93.612106 609.154846,85.208244
	C609.086121,84.331581 609.051697,84.163521 609.017334,83.995461
	C609.864258,80.539139 611.057068,77.393196 616.123596,76.933846
	C627.957397,76.842110 638.972412,76.805168 649.987488,76.768227
	C654.012268,77.141281 656.833191,78.837265 657.190552,84.110641
	C657.294434,93.018234 657.357300,101.100815 657.420105,109.183395
	C655.997253,115.446312 654.421875,116.591484 648.203064,116.541298
	C638.453735,116.462616 628.703186,116.547867 618.147156,116.580086
	C616.590027,116.554649 615.838928,116.512825 615.087769,116.471008
	C613.216431,114.508018 611.345154,112.545021 609.299683,110.042252
	C609.080566,109.335854 609.035645,109.169228 608.990662,109.002602
z"/>
  <path fill="#2A2A2A" opacity="1.000000" stroke="none"
        d="
M649.872192,76.391922
	C638.972412,76.805168 627.957397,76.842110 616.477417,76.823647
	C616.852173,76.181099 617.686279,75.092499 618.532104,75.083382
	C628.407532,74.976967 638.284973,75.017982 648.161316,75.087372
	C648.695312,75.091125 649.225098,75.692459 649.872192,76.391922
z"/>
  <path fill="#2A2A2A" opacity="1.000000" stroke="none"
        d="
M657.810547,108.946701
	C657.357300,101.100815 657.294434,93.018234 657.321777,84.475983
	C657.889465,84.416870 658.788818,84.824486 658.782227,85.216927
	C658.651184,93.048996 658.415527,100.879333 657.810547,108.946701
z"/>
  <path fill="#1E1E1E" opacity="1.000000" stroke="none"
        d="
M615.203491,116.795456
	C615.838928,116.512825 616.590027,116.554649 617.699402,116.718132
	C617.144836,116.933167 616.232056,117.026543 615.203491,116.795456
z"/>
  <path fill="#1E1E1E" opacity="1.000000" stroke="none"
        d="
M608.815674,109.095337
	C609.035645,109.169228 609.080566,109.335854 609.093750,109.759399
	C608.921570,109.740242 608.781128,109.464165 608.815674,109.095337
z"/>
  <path fill="#1E1E1E" opacity="1.000000" stroke="none"
        d="
M608.842041,84.082947
	C609.051697,84.163521 609.086121,84.331581 609.055542,84.748596
	C608.808716,84.828003 608.615234,84.668114 608.458435,84.477936
	C608.436218,84.451042 608.592896,84.276588 608.842041,84.082947
z"/>
  <path fill="#41D813" opacity="1.000000" stroke="none"
        d="
M355.043823,36.448345
	C379.771637,35.997852 404.472412,35.992638 429.655029,35.976509
	C438.708252,39.700317 442.222626,48.153164 437.695068,56.358929
	C425.579315,78.317619 413.044861,100.045326 400.385468,122.077957
	C393.988892,112.066162 387.750336,101.917923 381.811096,91.597427
	C373.874481,77.806091 366.358734,63.769428 358.254059,50.079815
	C355.733765,45.822845 354.563995,41.667503 355.043823,36.448345
z"/>
  <path fill="#FEFEFE" opacity="1.000000" stroke="none"
        d="
M461.626953,30.422874
	C462.303497,30.892595 463.099182,31.670643 463.833191,32.855373
	C463.096375,32.418442 462.421265,31.574821 461.626953,30.422874
z"/>
  <path fill="#FFFFFF" opacity="1.000000" stroke="none"
        d="
M481.132996,11.726372
	C488.321899,19.469719 488.724182,24.915010 482.182922,30.088482
	C480.373169,31.519793 477.336334,31.912807 474.869507,31.893475
	C469.707397,31.853014 463.634857,23.997047 464.013489,18.394150
	C464.355225,13.336565 469.777222,8.541445 475.029633,9.103562
	C477.028961,9.317536 478.907623,10.659272 481.132996,11.726372
z"/>
  <path fill="#333333" opacity="1.000000" stroke="none"
        d="
M203.924377,132.998413
	C193.715179,132.852844 195.053955,134.287506 195.020981,124.511299
	C194.954788,104.883698 195.111038,85.254608 194.913544,65.628769
	C194.871582,61.457668 195.671112,59.731754 200.328125,59.887661
	C209.984848,60.210941 209.993912,59.940876 209.993896,69.762444
	C209.993896,88.891258 209.876053,108.021347 210.083008,127.147926
	C210.130219,131.512360 209.226837,133.882538 203.924377,132.998413
z"/>
</svg>
